<?xml version="1.0" standalone="no"?><!DOCTYPE svg PUBLIC "-//W3C//DTD SVG 1.1//EN" "http://www.w3.org/Graphics/SVG/1.1/DTD/svg11.dtd"><svg t="1575007908611" class="icon" viewBox="0 0 1024 1024" version="1.1" xmlns="http://www.w3.org/2000/svg" p-id="4612" xmlns:xlink="http://www.w3.org/1999/xlink" width="48" height="48"><defs><style type="text/css"></style></defs><path d="M968 836H58V185h910v651z m-830-80h750V265H138v491z" fill="#e16531" p-id="4613"></path><path d="M373.7 638.3h-41.9V519.9H228v118.3h-41.9v-253H228v106.5h103.8V385.3h41.9v253z" fill="#e16531" p-id="4614"></path><path d="M378.7 643.3h-51.9V524.9H233v118.3h-51.9v-263H233v106.5h93.8V380.3h51.9v263z m-41.9-10h31.9v-243h-31.9v106.5H223V390.3h-31.9v243H223V514.9h113.8v118.4z" fill="#e16531" p-id="4615"></path><path d="M621.1 511.1c0 46.4-8.8 79.6-26.4 99.8-17.6 20.2-42.2 30.3-73.8 30.3-31.6 0-56.5-10.1-74.7-30.3-18.2-20.2-27.3-53.5-27.3-99.8s9.1-79.4 27.3-99.1c18.2-19.7 43.1-29.6 74.7-29.6s56.1 9.9 73.8 29.6c17.5 19.7 26.4 52.7 26.4 99.1z m-43.7 0c0-41.4-5.5-68.5-16.4-81.4-10.9-12.8-24.3-19.2-40.1-19.2s-29.4 6.4-41 19.2c-11.6 12.8-17.3 39.9-17.3 81.4 0 41.4 5.7 68.8 17.3 82.1 11.5 13.3 25.2 20 41 20s29.1-6.7 40.1-20 16.4-40.7 16.4-82.1z" fill="#e16531" p-id="4616"></path><path d="M520.9 646.2c-32.9 0-59.3-10.8-78.4-32-19-21.1-28.6-55.8-28.6-103.2 0-47.4 9.6-81.9 28.6-102.5 19.1-20.7 45.5-31.2 78.3-31.2 32.9 0 59 10.5 77.5 31.3C616.7 429.2 626 463.7 626 511c0 47.4-9.3 82.1-27.6 103.1-18.5 21.4-44.6 32.1-77.5 32.1z m0-258.8c-30 0-53.8 9.4-71 28-17.2 18.7-26 50.9-26 95.7 0 44.9 8.8 77.3 26 96.5 17.4 19.3 40.6 28.7 70.9 28.7 29.9 0 53.4-9.6 70-28.6 16.7-19.2 25.2-51.7 25.2-96.6 0-44.8-8.5-77.1-25.1-95.8-16.5-18.5-40.1-27.9-70-27.9z m0 230.7c-17.2 0-32.3-7.3-44.8-21.7-12.5-14.4-18.5-42.3-18.5-85.4 0-43.1 6.1-70.8 18.6-84.7 12.5-13.9 27.5-20.9 44.7-20.9 17.2 0 32 7.1 43.9 21 11.8 13.9 17.6 41.6 17.6 84.6 0 43-5.7 70.9-17.5 85.3-11.9 14.5-26.7 21.8-44 21.8z m0-202.6c-14.4 0-26.6 5.7-37.3 17.6-10.6 11.8-16 38-16 78s5.4 66.5 16.1 78.8c10.6 12.3 22.8 18.2 37.2 18.2 14.3 0 26.2-5.9 36.2-18.1 10.1-12.3 15.3-38.9 15.3-78.9 0-40-5.1-66.3-15.2-78.1-10.1-11.8-21.9-17.5-36.3-17.5z" fill="#e16531" p-id="4617"></path><path d="M839.9 413.4H767v224.8h-41.9V413.4h-72.8v-28.1h187.6v28.1z" fill="#e16531" p-id="4618"></path><path d="M772 643.3h-51.9V418.4h-72.8v-38.1h197.6v38.1H772v224.9z m-41.9-10H762V408.4h72.8v-18.1H657.3v18.1h72.8v224.9z" fill="#e16531" p-id="4619"></path></svg>